<svg xmlns="http://www.w3.org/2000/svg" xmlns:xlink="http://www.w3.org/1999/xlink" width="72" height="72" viewBox="0 0 72 72">
  <defs>
    <clipPath id="clip-dashboard_people">
      <rect width="72" height="72"/>
    </clipPath>
  </defs>
  <g id="dashboard_people" clip-path="url(#clip-dashboard_people)">
    <g id="user" transform="translate(3 1.653)">
      <path id="Path_51" data-name="Path 51" d="M40.074,15.94A12.067,12.067,0,0,1,45.689,24.9a9.735,9.735,0,1,0-5.616-8.964Zm-6.38,19.941a9.739,9.739,0,1,0-9.741-9.739A9.739,9.739,0,0,0,33.693,35.881Zm4.131.664H29.56A12.485,12.485,0,0,0,17.09,49.016V59.122l.026.158.7.218a56.763,56.763,0,0,0,16.955,2.734c9.165,0,14.477-2.613,14.8-2.78l.651-.329h.07V49.016A12.481,12.481,0,0,0,37.825,36.545ZM53.938,26.491h-8.2a12,12,0,0,1-3.7,8.36,14.818,14.818,0,0,1,10.584,14.18v3.114c8.1-.3,12.763-2.591,13.07-2.746l.651-.33h.07V38.96A12.484,12.484,0,0,0,53.938,26.491ZM16.6,25.828a9.674,9.674,0,0,0,5.18-1.5,12.053,12.053,0,0,1,4.531-7.687c.01-.182.027-.363.027-.547A9.739,9.739,0,1,0,16.6,25.828Zm8.747,9.023a12.01,12.01,0,0,1-3.7-8.314c-.3-.022-.6-.046-.915-.046H12.47A12.484,12.484,0,0,0,0,38.96V49.068l.026.156.7.22a58.467,58.467,0,0,0,14.043,2.64V49.031A14.821,14.821,0,0,1,25.35,34.851Z" transform="translate(0 0)" fill="#b4e8c7"/>
    </g>
  </g>
</svg>
