<svg xmlns="http://www.w3.org/2000/svg" xmlns:xlink="http://www.w3.org/1999/xlink" width="72" height="72" viewBox="0 0 72 72">
  <defs>
    <clipPath id="clip-devise_icon_white">
      <rect width="72" height="72"/>
    </clipPath>
  </defs>
  <g id="devise_icon_white" clip-path="url(#clip-devise_icon_white)">
    <g id="data_1_" data-name="data (1)" transform="translate(17 16.723)">
      <g id="Group_46" data-name="Group 46" transform="translate(0 0.277)">
        <path id="Path_48" data-name="Path 48" d="M33.955,24.9a4.093,4.093,0,0,0-3.931,2.972H26.079V23.525h4.028A7.935,7.935,0,0,0,32.412,8a9.07,9.07,0,0,0-8.786-6.865,8.972,8.972,0,0,0-4.542,1.216A7.938,7.938,0,0,0,5.8,7.947,7.935,7.935,0,0,0,7.934,23.525h4.028v4.351H8.017a4.086,4.086,0,1,0,0,2.229h5.06a1.115,1.115,0,0,0,1.114-1.114V23.525h3.715V30.26a4.086,4.086,0,1,0,2.229,0V23.525H23.85V28.99A1.115,1.115,0,0,0,24.965,30.1h5.06a4.086,4.086,0,1,0,3.931-5.2ZM4.086,30.847A1.857,1.857,0,1,1,5.944,28.99,1.86,1.86,0,0,1,4.086,30.847Zm16.792,3.343a1.857,1.857,0,1,1-1.857-1.857A1.86,1.86,0,0,1,20.878,34.191ZM7.934,21.3A5.706,5.706,0,0,1,7.1,9.945,1.114,1.114,0,0,0,8.052,8.74c-.016-.174-.024-.352-.024-.529a5.707,5.707,0,0,1,10.048-3.7,1.115,1.115,0,0,0,1.512.175,6.743,6.743,0,0,1,4.039-1.321,6.839,6.839,0,0,1,6.736,5.723,1.115,1.115,0,0,0,.879.913,5.706,5.706,0,0,1-1.134,11.3H7.934Zm26.021,9.552a1.857,1.857,0,1,1,1.857-1.857A1.86,1.86,0,0,1,33.955,30.847Z" transform="translate(0 -0.277)" fill="#fff"/>
      </g>
    </g>
  </g>
</svg>
