<svg xmlns="http://www.w3.org/2000/svg" xmlns:xlink="http://www.w3.org/1999/xlink" width="72" height="72" viewBox="0 0 72 72">
  <defs>
    <clipPath id="clip-envir_icon_white">
      <rect width="72" height="72"/>
    </clipPath>
  </defs>
  <g id="envir_icon_white" clip-path="url(#clip-envir_icon_white)">
    <g id="surface1" transform="translate(18 20)">
      <path id="Path_36" data-name="Path 36" d="M9.062,500.25H1.812A1.813,1.813,0,0,0,0,502.063v12.083a1.813,1.813,0,0,0,1.812,1.813h7.25a1.813,1.813,0,0,0,1.812-1.812V502.063A1.813,1.813,0,0,0,9.062,500.25Zm.6,13.9a.6.6,0,0,1-.6.6H1.812a.6.6,0,0,1-.6-.6V502.063a.6.6,0,0,1,.6-.6h7.25a.6.6,0,0,1,.6.6Zm0,0" transform="translate(0 -480.917)" fill="#fff"/>
      <path id="Path_37" data-name="Path 37" d="M665.313,344h-7.25a1.813,1.813,0,0,0-1.812,1.813v18.125a1.813,1.813,0,0,0,1.813,1.813h7.25a1.813,1.813,0,0,0,1.812-1.812V345.813A1.813,1.813,0,0,0,665.313,344Zm.6,19.937a.6.6,0,0,1-.6.6h-7.25a.6.6,0,0,1-.6-.6V345.813a.6.6,0,0,1,.6-.6h7.25a.6.6,0,0,1,.6.6Zm0,0" transform="translate(-630.875 -330.709)" fill="#fff"/>
      <path id="Path_38" data-name="Path 38" d="M337.187,422.125h-7.25a1.813,1.813,0,0,0-1.812,1.812v15.1a1.813,1.813,0,0,0,1.813,1.813h7.25A1.813,1.813,0,0,0,339,439.042v-15.1A1.813,1.813,0,0,0,337.187,422.125Zm.6,16.917a.6.6,0,0,1-.6.6h-7.25a.6.6,0,0,1-.6-.6v-15.1a.6.6,0,0,1,.6-.6h7.25a.6.6,0,0,1,.6.6Zm0,0" transform="translate(-315.438 -405.813)" fill="#fff"/>
      <path id="Path_39" data-name="Path 39" d="M52.387,12.76a.6.6,0,0,0,.854,0L63.689,2.313v.958a.6.6,0,1,0,1.208,0V.854a.6.6,0,0,0-.042-.211c-.008-.02-.018-.04-.028-.06a.6.6,0,0,0-.084-.125.528.528,0,0,0-.2-.153C64.535.3,64.531.3,64.526.3a.6.6,0,0,0-.21-.042c-.009,0-.015,0-.023,0H61.877a.6.6,0,0,0,0,1.208h.958L52.814,11.479,47.5,6.167a.6.6,0,0,0-.854,0l-6.219,6.219-2.9-2.9a.6.6,0,0,0-.854,0l-5.437,5.437a.6.6,0,1,0,.854.854l5.01-5.01,2.9,2.9a.6.6,0,0,0,.854,0l6.219-6.219Zm0,0" transform="translate(-29.856 -0.25)" fill="#fff"/>
    </g>
  </g>
</svg>
