<svg xmlns="http://www.w3.org/2000/svg" xmlns:xlink="http://www.w3.org/1999/xlink" width="72" height="72" viewBox="0 0 72 72">
  <defs>
    <clipPath id="clip-notification_icon">
      <rect width="72" height="72"/>
    </clipPath>
  </defs>
  <g id="notification_icon" clip-path="url(#clip-notification_icon)">
    <path id="notification" d="M82.278,29.621a5.783,5.783,0,0,1-1.757-2.393c-1.514-3.2-1.832-7.719-1.832-10.942,0-.014,0-.028,0-.042a10.561,10.561,0,0,0-6.217-9.578V4.146A4.148,4.148,0,0,0,68.332,0h-.343a4.148,4.148,0,0,0-4.14,4.146V6.666a10.561,10.561,0,0,0-6.217,9.62c0,3.223-.318,7.737-1.832,10.942a5.783,5.783,0,0,1-1.757,2.393,1.06,1.06,0,0,0-.582,1.206,1.109,1.109,0,0,0,1.094.852h7.993a5.614,5.614,0,0,0,11.228,0h7.993a1.109,1.109,0,0,0,1.094-.852A1.06,1.06,0,0,0,82.278,29.621ZM66.03,4.146a1.962,1.962,0,0,1,1.959-1.962h.343A1.962,1.962,0,0,1,70.29,4.146V5.958a10.561,10.561,0,0,0-4.26,0V4.146Zm2.13,30.89a3.441,3.441,0,0,1-3.433-3.358h6.866A3.441,3.441,0,0,1,68.16,35.037Zm4.391-5.542H57.039a11.433,11.433,0,0,0,.571-1c1.462-2.882,2.2-6.988,2.2-12.205a8.347,8.347,0,1,1,16.694,0c0,.013,0,.027,0,.04,0,5.2.745,9.287,2.2,12.161a11.435,11.435,0,0,0,.571,1Z" transform="translate(-32.434 18.001)" fill="#707070"/>
  </g>
</svg>
