<svg xmlns="http://www.w3.org/2000/svg" xmlns:xlink="http://www.w3.org/1999/xlink" width="330" height="303" viewBox="0 0 330 303">
  <defs>
    <clipPath id="clip-iPhone_XR_XS_Max_11_90">
      <rect width="330" height="303"/>
    </clipPath>
  </defs>
  <g id="iPhone_XR_XS_Max_11_90" data-name="iPhone XR, XS Max, 11 – 90" clip-path="url(#clip-iPhone_XR_XS_Max_11_90)">
    <rect id="Rectangle_19" data-name="Rectangle 19" width="183" height="183" rx="21" transform="translate(77 65)" fill="#d7f4fe"/>
    <g id="group_1_" data-name="group (1)" transform="translate(91.796 109.388)">
      <g id="Group_41" data-name="Group 41" transform="translate(0 0)">
        <path id="Path_50" data-name="Path 50" d="M132.99,135.211a17.556,17.556,0,1,0-20.142,0,30.416,30.416,0,0,0-10.375,6.085,39.36,39.36,0,0,0-14.239-7.758,22.241,22.241,0,1,0-23,0A39.69,39.69,0,0,0,51.145,141.2a30.663,30.663,0,0,0-10.253-5.963,17.556,17.556,0,1,0-20.142,0A30.815,30.815,0,0,0,0,164.358v2.008a.131.131,0,0,0,.122.122h37.21A40.922,40.922,0,0,0,37,171.63V173.7a16.179,16.179,0,0,0,16.186,16.186h47.16A16.179,16.179,0,0,0,116.53,173.7V171.63a40.918,40.918,0,0,0-.335-5.142h37.454a.131.131,0,0,0,.122-.122v-2.008A30.934,30.934,0,0,0,132.99,135.211Zm-38.945-20.72Zm-63.5,23.884ZM111.6,173.7Zm11.136-35.324Z" transform="translate(0 -92.25)" fill="#45c8f6"/>
      </g>
    </g>
  </g>
</svg>
