<svg xmlns="http://www.w3.org/2000/svg" xmlns:xlink="http://www.w3.org/1999/xlink" width="72" height="72" viewBox="0 0 72 72">
  <defs>
    <clipPath id="clip-class_icon">
      <rect width="72" height="72"/>
    </clipPath>
  </defs>
  <g id="class_icon" clip-path="url(#clip-class_icon)">
    <g id="school" transform="translate(18.566 20)">
      <g id="Group_33" data-name="Group 33" transform="translate(0 0)">
        <g id="Group_32" data-name="Group 32" transform="translate(0 0)">
          <path id="Path_42" data-name="Path 42" d="M35.442,0H.6A.6.6,0,0,0,0,.6H0V12.615H1.2V1.2h33.64V14.417H13.816v1.2H35.442a.6.6,0,0,0,.6-.6h0V.6A.6.6,0,0,0,35.442,0Z" transform="translate(0 0)" fill="#707070"/>
        </g>
      </g>
      <g id="Group_35" data-name="Group 35" transform="translate(20.056 2.294)">
        <g id="Group_34" data-name="Group 34" transform="translate(0 0)">
          <rect id="Rectangle_61" data-name="Rectangle 61" width="11.546" height="0.888" transform="translate(0 0)" fill="#707070"/>
        </g>
      </g>
      <g id="Group_37" data-name="Group 37" transform="translate(20.944 6.735)">
        <g id="Group_36" data-name="Group 36" transform="translate(0 0)">
          <rect id="Rectangle_62" data-name="Rectangle 62" width="13.322" height="0.888" transform="translate(0 0)" fill="#707070"/>
        </g>
      </g>
      <g id="Group_39" data-name="Group 39" transform="translate(19.168 10.287)">
        <g id="Group_38" data-name="Group 38" transform="translate(0)">
          <rect id="Rectangle_63" data-name="Rectangle 63" width="11.546" height="0.888" fill="#707070"/>
        </g>
      </g>
      <g id="Group_41" data-name="Group 41" transform="translate(0 2.403)">
        <g id="Group_40" data-name="Group 40" transform="translate(0)">
          <path id="Path_43" data-name="Path 43" d="M19.175,34.776a1.939,1.939,0,0,0-2.534-1.045l-.05.022L11.719,36.28a2.97,2.97,0,0,0,.3-1.276,3,3,0,1,0-5.391,1.8H6.6a4.122,4.122,0,0,0-3.829,2.667L1.165,45a1.924,1.924,0,1,0,3.613,1.323l.628-2v8.694a2.995,2.995,0,0,0-3.9,4.532A2.767,2.767,0,0,0,0,60.005v5.034a.6.6,0,0,0,.6.6H6.608a.6.6,0,0,0,.6-.6h0V60.005a2.761,2.761,0,0,0-1.072-2.175h4.547a2.761,2.761,0,0,0-1.072,2.175v5.034a.6.6,0,0,0,.6.6h6.007a.6.6,0,0,0,.6-.6h0V60.005a2.767,2.767,0,0,0-1.508-2.455,3,3,0,0,0-2.7-5.088V40.174l5.515-2.863A1.939,1.939,0,0,0,19.175,34.776ZM9.011,33.2a1.8,1.8,0,1,1-1.8,1.8A1.8,1.8,0,0,1,9.011,33.2ZM3.6,53.6a1.8,1.8,0,1,1-1.8,1.8A1.8,1.8,0,0,1,3.6,53.6Zm2.4,10.835H1.2V60.005a1.576,1.576,0,0,1,1.574-1.574H4.433a1.576,1.576,0,0,1,1.574,1.574Zm9.611-4.433v4.433H10.813V60.005a1.576,1.576,0,0,1,1.574-1.574h1.657A1.576,1.576,0,0,1,15.619,60.005Zm-2.4-6.4a1.8,1.8,0,1,1-1.8,1.8A1.8,1.8,0,0,1,13.216,53.6Zm4.86-17.825a.773.773,0,0,1-.453.445l-5.885,3.053a.6.6,0,0,0-.324.533V53.018a2.963,2.963,0,0,0-.935,3.611H9.611V46.417H8.41V56.629H6.341a2.976,2.976,0,0,0,.264-1.2h0V40.41a.6.6,0,0,0-1.174-.18L3.64,45.938a.722.722,0,0,1-1,.4.737.737,0,0,1-.335-.954l1.6-5.527A2.9,2.9,0,0,1,6.6,38.007h4.253a.6.6,0,0,0,.277-.067l5.97-3.1a.739.739,0,0,1,.945.35A.731.731,0,0,1,18.076,35.778Z" transform="translate(0 -32)" fill="#707070"/>
        </g>
      </g>
      <g id="Group_43" data-name="Group 43" transform="translate(19.223 22.799)">
        <g id="Group_42" data-name="Group 42">
          <path id="Path_44" data-name="Path 44" d="M261.7,308.773a3,3,0,1,0-4.247-.055l.055.055A2.768,2.768,0,0,0,256,311.228v5.034a.6.6,0,0,0,.6.6h6.007a.6.6,0,0,0,.6-.6h0v-5.034A2.767,2.767,0,0,0,261.7,308.773Zm-2.1-3.947a1.8,1.8,0,1,1-1.8,1.8A1.8,1.8,0,0,1,259.6,304.826Zm2.4,10.835H257.2v-4.433a1.576,1.576,0,0,1,1.574-1.574h1.657a1.576,1.576,0,0,1,1.574,1.574Z" transform="translate(-256 -303.618)" fill="#707070"/>
        </g>
      </g>
      <g id="Group_45" data-name="Group 45" transform="translate(28.834 22.799)">
        <g id="Group_44" data-name="Group 44">
          <path id="Path_45" data-name="Path 45" d="M389.7,308.773a3,3,0,1,0-4.247-.055l.055.055A2.768,2.768,0,0,0,384,311.228v5.034a.6.6,0,0,0,.6.6h6.008a.6.6,0,0,0,.6-.6h0v-5.034A2.767,2.767,0,0,0,389.7,308.773Zm-2.1-3.947a1.8,1.8,0,1,1-1.8,1.8A1.8,1.8,0,0,1,387.6,304.826Zm2.4,10.835H385.2v-4.433a1.576,1.576,0,0,1,1.574-1.574h1.657a1.576,1.576,0,0,1,1.574,1.574Z" transform="translate(-384 -303.618)" fill="#707070"/>
        </g>
      </g>
    </g>
  </g>
</svg>
