<svg xmlns="http://www.w3.org/2000/svg" xmlns:xlink="http://www.w3.org/1999/xlink" width="72" height="72" viewBox="0 0 72 72">
  <defs>
    <clipPath id="clip-delete_icon">
      <rect width="72" height="72"/>
    </clipPath>
  </defs>
  <g id="delete_icon" clip-path="url(#clip-delete_icon)">
    <rect id="Rectangle_18" data-name="Rectangle 18" width="58" height="57" rx="12" transform="translate(7 8)" fill="#ffefeb"/>
    <g id="trash" transform="translate(21 17.001)">
      <path id="Path_5" data-name="Path 5" d="M30.741,8.439l-.834-2.5A2.325,2.325,0,0,0,27.7,4.349H20.693V2.068A2.07,2.07,0,0,0,18.626,0H12.21a2.07,2.07,0,0,0-2.067,2.068V4.349H3.137A2.325,2.325,0,0,0,.929,5.94L.1,8.439A1.871,1.871,0,0,0,1.87,10.9h.871L4.659,34.617a3.431,3.431,0,0,0,3.4,3.138H23.166a3.431,3.431,0,0,0,3.4-3.139L28.484,10.9h.482a1.871,1.871,0,0,0,1.774-2.463ZM12.355,2.212h6.125V4.349H12.355ZM24.361,34.439a1.206,1.206,0,0,1-1.195,1.1H8.059a1.206,1.206,0,0,1-1.195-1.1L4.961,10.9h21.3ZM2.344,8.689,3.028,6.64a.115.115,0,0,1,.109-.079H27.7a.115.115,0,0,1,.109.079l.684,2.049Zm0,0" transform="translate(0 0)" fill="#f48a2d"/>
      <path id="Path_6" data-name="Path 6" d="M269.345,187.727h.058a1.106,1.106,0,0,0,1.1-1.049l1.039-19.94a1.106,1.106,0,0,0-2.209-.115l-1.038,19.94a1.106,1.106,0,0,0,1.047,1.162Zm0,0" transform="translate(-248.512 -153.366)" fill="#f48a2d"/>
      <path id="Path_7" data-name="Path 7" d="M106.883,186.685a1.106,1.106,0,0,0,1.1,1.046l.061,0a1.106,1.106,0,0,0,1.044-1.165L108,166.625a1.106,1.106,0,0,0-2.209.12Zm0,0" transform="translate(-97.992 -153.369)" fill="#f48a2d"/>
      <path id="Path_8" data-name="Path 8" d="M195.36,187.731a1.106,1.106,0,0,0,1.106-1.106v-19.94a1.106,1.106,0,0,0-2.212,0v19.94A1.106,1.106,0,0,0,195.36,187.731Zm0,0" transform="translate(-179.929 -153.369)" fill="#f48a2d"/>
    </g>
  </g>
</svg>
