<svg xmlns="http://www.w3.org/2000/svg" xmlns:xlink="http://www.w3.org/1999/xlink" width="72" height="72" viewBox="0 0 72 72">
  <defs>
    <clipPath id="clip-home_icon_white">
      <rect width="72" height="72"/>
    </clipPath>
  </defs>
  <g id="home_icon_white" clip-path="url(#clip-home_icon_white)">
    <g id="browser" transform="translate(17 19)">
      <path id="Path_25" data-name="Path 25" d="M69.4,215.121H43.5a3.508,3.508,0,0,1-3.5-3.5V193.182a1.219,1.219,0,1,1,2.438,0v18.435a1.068,1.068,0,0,0,1.066,1.066H69.4a1.068,1.068,0,0,0,1.066-1.066V193.182a1.219,1.219,0,1,1,2.438,0v18.435A3.508,3.508,0,0,1,69.4,215.121Z" transform="translate(-36.953 -178.561)" fill="#fff"/>
      <path id="Path_26" data-name="Path 26" d="M37.782,34.9a1.215,1.215,0,0,1-.862-.357L21.762,19.389a3.2,3.2,0,0,0-4.524,0L2.081,34.546A1.219,1.219,0,0,1,.357,32.823L15.515,17.665a5.643,5.643,0,0,1,7.971,0L38.643,32.823a1.219,1.219,0,0,1-.862,2.081Z" transform="translate(0 -16.017)" fill="#fff"/>
      <path id="Path_27" data-name="Path 27" d="M186.969,303.827h-9.75A1.219,1.219,0,0,1,176,302.608V291.792a3.813,3.813,0,0,1,3.809-3.809h4.57a3.813,3.813,0,0,1,3.809,3.809v10.816A1.219,1.219,0,0,1,186.969,303.827Zm-8.531-2.438h7.312v-9.6a1.373,1.373,0,0,0-1.371-1.371h-4.57a1.373,1.373,0,0,0-1.371,1.371Z" transform="translate(-162.594 -267.267)" fill="#fff"/>
    </g>
  </g>
</svg>
