<?xml version="1.0" encoding="utf-8"?>
<!-- Generator: Adobe Illustrator 25.0.1, SVG Export Plug-In . SVG Version: 6.00 Build 0)  -->
<svg version="1.1" id="圖層_1" xmlns="http://www.w3.org/2000/svg" xmlns:xlink="http://www.w3.org/1999/xlink" x="0px" y="0px"
	 viewBox="0 0 44.3 41.8" style="enable-background:new 0 0 44.3 41.8;" xml:space="preserve">
<style type="text/css">
	.st0{fill:#FFFFFF;}
</style>
<g id="tEirR3_8_">
	<g>
		<path class="st0" d="M12.1,32.6c-1.2,0-2.5,0-3.7,0c-0.8,0-1.2-0.4-1.2-1.2c0-1.1,0.3-2.1,1.2-2.9c0.7-0.7,1.3-1,2.2-0.4
			c1,0.7,2.2,0.6,3.2-0.1c0.7-0.4,1.1-0.3,1.7,0.1c1.1,0.8,1.5,2,1.6,3.3c0,0.7-0.4,1.1-1.2,1.1C14.6,32.5,13.4,32.6,12.1,32.6
			C12.1,32.6,12.1,32.6,12.1,32.6z"/>
		<path class="st0" d="M22.2,32.6c-1.2,0-2.5,0-3.7,0c-0.8,0-1.2-0.4-1.2-1.2c0-1.1,0.3-2.1,1.2-2.9c0.7-0.7,1.3-1,2.2-0.4
			c1,0.7,2.2,0.6,3.2-0.1c0.7-0.4,1.1-0.3,1.7,0.1c1.1,0.8,1.5,2,1.6,3.3c0,0.7-0.4,1.1-1.2,1.1C24.6,32.5,23.4,32.6,22.2,32.6
			C22.2,32.6,22.2,32.6,22.2,32.6z"/>
		<path class="st0" d="M32.2,32.6c-1.2,0-2.5,0-3.7,0c-0.8,0-1.2-0.4-1.2-1.2c0-1.1,0.3-2.1,1.2-2.9c0.7-0.7,1.3-1,2.2-0.4
			c1,0.7,2.2,0.6,3.2-0.1c0.7-0.4,1.1-0.3,1.7,0.1c1.1,0.8,1.5,2,1.6,3.3c0,0.7-0.4,1.1-1.2,1.1C34.7,32.5,33.4,32.6,32.2,32.6
			C32.2,32.6,32.2,32.6,32.2,32.6z"/>
		<path class="st0" d="M24.1,24.8c0,1.1-0.9,2-2,2c-1.1,0-2-0.9-2-2c0-1.1,1-2,2-2C23.2,22.8,24.1,23.7,24.1,24.8z"/>
		<path class="st0" d="M32.1,26.8c-1.1,0-2-0.9-2-1.9c0-1,0.9-2,2-2c1.1,0,2,0.9,2,2C34.1,25.9,33.3,26.8,32.1,26.8z"/>
		<path class="st0" d="M12.1,26.8c-1.1,0-2-1-2-2c0-1.1,1-2,2-2c1.1,0,2,1,1.9,2C14.1,26,13.2,26.8,12.1,26.8z"/>
		<path class="st0" d="M33.8,12.3c0-0.9-0.6-1.1-1.4-1.1c-3.2,0-6.4,0-9.6,0c-3.6,0-7.1,0-10.7,0c-0.7,0-1.4,0.1-1.5,0.9
			c0,3.1,0,6.2,0,9.3c3.1-0.7,5.3,0.7,5.3,4.4c0.9,0,1.8,0,2.7,0c0-2.9,1.4-4.6,3.6-4.6c2.3,0,3.7,1.7,3.6,4.6c0.9,0,1.8,0,2.7,0
			c-0.2-3.2,1.8-5.2,5.3-4.4C33.8,18.3,33.8,15.3,33.8,12.3z M19.4,15.5c0.1,0,0.1-0.1,0.2-0.1c0,0,0,0,0,0c1.7-0.1,3.4-0.1,5.1,0
			c0,0,0,0,0,0c0.1,0,0.1,0,0.2,0.1c0.5,0.3,0.5,1.1,0,1.4c-0.1,0-0.1,0.1-0.2,0.1c-0.2,0-0.4,0-0.6,0.1c-0.6,0-1.3,0-1.9,0
			c-0.8,0-1.7,0.1-2.5,0c-0.1,0-0.1,0-0.2-0.1C18.9,16.6,18.9,15.8,19.4,15.5z M28.4,20.2c-4.2,0-8.4,0-12.6,0c-0.6,0-1.4,0-1.4-0.8
			c0-0.8,0.7-0.8,1.3-0.8c2.1,0,4.3,0,6.4,0c0,0,0,0,0,0c2.1,0,4.3,0,6.4,0c0.6,0,1.4-0.2,1.4,0.8C29.8,20.3,29,20.2,28.4,20.2z"/>
	</g>
</g>
</svg>
