<?xml version="1.0" encoding="utf-8"?>
<!-- Generator: Adobe Illustrator 25.0.1, SVG Export Plug-In . SVG Version: 6.00 Build 0)  -->
<svg version="1.1" id="圖層_1" xmlns="http://www.w3.org/2000/svg" xmlns:xlink="http://www.w3.org/1999/xlink" x="0px" y="0px"
	 viewBox="0 0 44.3 41.8" style="enable-background:new 0 0 44.3 41.8;" xml:space="preserve">
<style type="text/css">
	.st0{fill:#FFFFFF;}
</style>
<g id="gH4fB7_9_">
	<g>
		<path class="st0" d="M32.7,13.4c-0.1,0.2-0.2,0.4-0.3,0.6c-0.4,0.8-0.9,1.5-1.3,2.3c-0.1,0.2-0.1,0.3,0,0.4
			c0.2,0.4,0.3,0.8,0.5,1.1c0.1,0.1,0.2,0.2,0.3,0.3c0.9,0.2,1.8,0.4,2.6,0.6c0.6,0.1,0.8,0.4,0.8,1c0,0.9,0,1.8,0,2.7
			c0,0.6-0.2,0.8-0.8,1c-0.9,0.2-1.8,0.4-2.6,0.6c-0.2,0-0.3,0.1-0.3,0.3c-0.1,0.4-0.3,0.7-0.5,1.1c-0.1,0.2-0.1,0.3,0,0.5
			c0.5,0.8,0.9,1.5,1.4,2.3c0.3,0.5,0.2,0.8-0.1,1.2c-0.6,0.6-1.3,1.3-1.9,1.9c-0.4,0.4-0.7,0.4-1.2,0.1c-0.8-0.5-1.5-0.9-2.3-1.4
			c-0.1-0.1-0.2-0.1-0.4,0c-0.4,0.2-0.7,0.3-1.1,0.5c-0.2,0.1-0.3,0.2-0.3,0.3c-0.2,0.8-0.4,1.7-0.6,2.5c-0.1,0.6-0.4,0.8-1,0.8
			c-0.9,0-1.8,0-2.7,0c-0.6,0-0.8-0.2-1-0.7c-0.2-0.9-0.4-1.7-0.6-2.6c0-0.2-0.1-0.2-0.3-0.3c-0.4-0.1-0.7-0.3-1.1-0.5
			c-0.2-0.1-0.3-0.1-0.5,0c-0.7,0.5-1.5,0.9-2.2,1.4c-0.5,0.3-0.8,0.3-1.2-0.2c-0.6-0.6-1.3-1.3-1.9-1.9c-0.4-0.4-0.4-0.7-0.1-1.2
			c0.5-0.8,0.9-1.5,1.4-2.3c0.1-0.1,0.1-0.3,0-0.4c-0.2-0.4-0.3-0.8-0.5-1.1c-0.1-0.1-0.2-0.2-0.3-0.3c-0.8-0.2-1.7-0.4-2.5-0.6
			c-0.6-0.2-0.8-0.4-0.8-1c0-0.9,0-1.8,0-2.7c0-0.6,0.2-0.8,0.7-0.9c0.9-0.2,1.7-0.4,2.6-0.7c0.1,0,0.2-0.2,0.3-0.3
			c0.2-0.4,0.3-0.8,0.5-1.1c0.1-0.2,0.1-0.3,0-0.4c-0.5-0.8-0.9-1.5-1.4-2.3c-0.3-0.5-0.3-0.8,0.1-1.2c0.6-0.6,1.3-1.3,1.9-1.9
			c0.4-0.4,0.7-0.5,1.2-0.1c0.8,0.4,1.5,0.9,2.3,1.3c0.2,0.1,0.3,0.1,0.4,0c0.4-0.2,0.7-0.3,1.1-0.5c0.2-0.1,0.2-0.1,0.3-0.3
			c0.2-0.9,0.4-1.7,0.6-2.6c0.2-0.6,0.4-0.8,1-0.8c0.9,0,1.8,0,2.7,0c0.6,0,0.8,0.2,0.9,0.8c0.2,0.9,0.4,1.8,0.6,2.6
			c0,0.2,0.1,0.3,0.3,0.3c0.4,0.1,0.7,0.3,1.1,0.5c0.2,0.1,0.3,0.1,0.4,0c0.7-0.5,1.5-0.9,2.2-1.3c0.5-0.3,0.8-0.3,1.2,0.2
			c0.6,0.6,1.3,1.3,1.9,1.9C32.5,12.9,32.6,13.2,32.7,13.4z M18.3,21c0,2.1,1.7,3.8,3.8,3.8c2.1,0,3.8-1.7,3.9-3.8
			c0-2.1-1.7-3.8-3.8-3.9C20.1,17.1,18.3,18.9,18.3,21z"/>
	</g>
</g>
</svg>
