<?xml version="1.0" encoding="utf-8"?>
<!-- Generator: Adobe Illustrator 25.0.1, SVG Export Plug-In . SVG Version: 6.00 Build 0)  -->
<svg version="1.1" id="圖層_1" xmlns="http://www.w3.org/2000/svg" xmlns:xlink="http://www.w3.org/1999/xlink" x="0px" y="0px"
	 viewBox="0 0 44.3 41.8" style="enable-background:new 0 0 44.3 41.8;" xml:space="preserve">
<style type="text/css">
	.st0{fill:#008778;}
</style>
<g>
	<path class="st0" d="M8.7,15.6c0.6,0.5,1.1,1.2,1.6,1.8c0.1,0.1,0.1,0.4,0.1,0.6c0,0.9,0,1.9,0,2.8c0,1.3,0.7,2.2,1.6,3
		c0.2,0.2,0.4,0.1,0.6-0.1c0.5-0.5,1.1-1,1.7-1.6c1-1.1,3-1.1,3.9,0.1c0.3,0.4,0.4,0.9,0.7,1.3c0.1,0.2,0.3,0.3,0.4,0.4
		c0.9,0.2,1.8,1,2,1.9c0.1,0.4,0.3,0.6,0.7,0.7c1,0.2,1.7,1,1.9,2c0,0.2,0.2,0.4,0.4,0.4c0.8,0.2,1.5,0.6,1.9,1.4
		c0.3,0.5,0.9,0.6,1.4,0.3c0.5-0.3,0.6-1,0.1-1.4c-0.9-1-1.9-1.9-2.8-2.8c-0.3-0.3-0.6-0.6-0.9-0.9c-0.3-0.3-0.2-0.7,0-1
		c0.3-0.3,0.6-0.3,1-0.2c0.2,0.1,0.4,0.3,0.5,0.4c1.1,1,2.1,2.1,3.1,3.2c0.7,0.7,1.4,0.3,1.7-0.3c0.2-0.4,0-0.7-0.3-1
		c-1.1-1.1-2.2-2.2-3.2-3.3c-0.2-0.2-0.4-0.6-0.5-0.9c-0.1-0.4,0.2-0.6,0.5-0.7c0.2-0.1,0.6,0,0.7,0.1c0.7,0.6,1.4,1.3,2.1,2
		c0.5,0.5,1,1,1.5,1.5c0.5,0.5,1,0.5,1.5,0.1c0.4-0.4,0.4-1-0.1-1.5c-1.6-1.6-3.1-3.1-4.7-4.7c-0.6-0.6-1.2-1.2-1.9-1.9
		c-0.6-0.6-1-0.6-1.7,0c-0.5,0.4-0.7,1-1,1.6c-0.5,1.2-1.2,2.3-2.5,2.8c-0.9,0.3-2.3-0.1-2.8-0.8c-0.3-0.6-0.2-1.1-0.1-1.7
		c0.2-0.8,0.4-1.5,0.5-2.3c0.2-1.4,0.7-2.6,1.8-3.6c1-0.9,1-0.9-0.3-1.4c-0.2-0.1-0.4-0.1-0.6-0.1c-1,0-2.1,0-3.1,0
		c-0.6,0-1-0.2-1.4-0.6c-0.3-0.3-0.5-0.5-0.8-0.8c-0.1-0.1-0.2-0.3-0.2-0.5c-2.3,1.4-4.1,3.3-5.5,5.6C8.7,15.5,8.7,15.5,8.7,15.6z"
		/>
	<path class="st0" d="M17.5,29.1c0.7-0.6,1.3-1.3,2-2c0.2-0.2,0.2-0.4,0.4-0.6c-0.1-0.2-0.2-0.5-0.3-0.7c-0.4-0.5-0.9-0.5-1.5,0
		c-0.7,0.6-1.3,1.3-1.9,1.9c-0.5,0.5-0.5,1-0.1,1.5C16.5,29.6,16.9,29.6,17.5,29.1z"/>
	<path class="st0" d="M30.7,10.1C30,11,29.4,12,28,11.8c-0.4,0-0.7,0-1.1,0c0,0,0,0,0,0c-0.4,0-0.8,0-1.2,0c-1.1-0.1-2,0.4-2.8,1.2
		c-0.6,0.6-1.1,1.2-1.7,1.7c-0.7,0.6-1,1.5-1.2,2.4c-0.2,0.8-0.3,1.6-0.6,2.4c-0.1,0.3-0.2,0.6,0.1,0.7c0.2,0.1,0.6,0.1,0.8,0
		c0.8-0.4,1.3-1.2,1.5-2c0.2-0.9,0.8-1.5,1.4-2.1c0.6-0.6,1.3-0.9,2.1-0.7c0.4,0.1,0.9,0.2,1.2,0.5c1.2,1,2.3,2.2,3.4,3.3
		c1.1,1.1,2.3,2.3,3.4,3.4c0.3,0.3,0.5,0.3,0.7-0.2c0.4-1,0.6-2,0.4-3c-0.3-1.2,0-2.1,0.8-2.9c0.2-0.2,0.5-0.5,0.8-0.7
		c0.1-0.1,0.1-0.1,0.2-0.1c-1.3-2.3-3.2-4.2-5.4-5.6C30.8,10,30.8,10.1,30.7,10.1z"/>
	<path class="st0" d="M21.7,34.6c0.3-0.1,0.5-0.1,0.6-0.2c0.8-0.8,1.7-1.6,2.5-2.4c0.3-0.3,0.2-0.7-0.2-1.1
		c-0.3-0.3-0.6-0.7-1.1-0.3c-0.9,0.8-1.7,1.6-2.5,2.5c-0.2,0.2-0.2,0.6-0.1,0.8C21,34.1,21.4,34.3,21.7,34.6z"/>
	<path class="st0" d="M16.9,23.2c-0.5-0.5-0.8-0.5-1.3-0.1c-0.8,0.7-1.5,1.5-2.2,2.2c-0.1,0.2-0.2,0.4-0.3,0.6
		c0,0.5,0.4,0.8,0.7,0.9c0.3,0.1,0.7,0,0.9-0.1c0.8-0.7,1.5-1.5,2.2-2.2C17.4,24,17.4,23.6,16.9,23.2z"/>
	<path class="st0" d="M19.9,31.7c0.7-0.7,1.4-1.4,2.1-2.2c0.1-0.1,0.2-0.4,0.3-0.5c-0.1-0.2-0.1-0.4-0.2-0.5c-0.3-0.6-1-0.7-1.5-0.3
		c-0.8,0.7-1.5,1.4-2.2,2.1c-0.5,0.5-0.4,0.9,0.1,1.4C19,32,19.5,32,19.9,31.7z"/>
</g>
</svg>
