<?xml version="1.0" encoding="utf-8"?>
<!-- Generator: Adobe Illustrator 25.0.1, SVG Export Plug-In . SVG Version: 6.00 Build 0)  -->
<svg version="1.1" id="圖層_1" xmlns="http://www.w3.org/2000/svg" xmlns:xlink="http://www.w3.org/1999/xlink" x="0px" y="0px"
	 viewBox="0 0 44.3 41.8" style="enable-background:new 0 0 44.3 41.8;" xml:space="preserve">
<style type="text/css">
	.st0{fill:#008778;}
</style>
<path class="st0" d="M34,13.6c-0.1-1.5-1.3-2.6-2.8-2.7c-1.6-0.1-3.2-0.4-4.6-1.1c-1-0.5-2-1.1-2.8-1.9c-0.3-0.3-0.6-0.6-1-0.7
	c-0.3,0-0.7,0-1,0c-0.6,0.2-0.9,0.7-1.4,1.1c-1.7,1.4-3.6,2.2-5.8,2.5c-0.6,0.1-1.1,0.1-1.7,0.2c-1.3,0.2-2.3,1.4-2.3,2.7
	c-0.1,2.2-0.1,4.4,0.1,6.6c0.2,2.3,0.7,4.4,1.7,6.5c1.2,2.4,2.9,4.3,5.2,5.8c1.3,0.8,2.7,1.4,4.1,1.9c0.4,0.1,0.9,0.1,1.3,0
	c2.2-0.8,4.3-1.8,6.1-3.4c1.9-1.7,3.2-3.7,3.9-6c0.5-1.5,0.8-3.1,0.9-4.7C34.1,18.1,34.1,15.8,34,13.6z M20.8,15.4
	c0-0.8,0.7-1.5,1.5-1.5c0.8,0,1.5,0.7,1.5,1.5v7.4c0,0.8-0.7,1.5-1.5,1.5c-0.8,0-1.5-0.7-1.5-1.5V15.4z M23.8,27.5
	c0,0.1-0.1,0.2-0.1,0.3c0,0.1-0.1,0.2-0.1,0.3c-0.1,0.1-0.1,0.2-0.2,0.2c-0.3,0.3-0.7,0.4-1.1,0.4c-0.4,0-0.8-0.2-1.1-0.4
	c-0.3-0.3-0.4-0.7-0.4-1c0-0.4,0.2-0.8,0.4-1c0.4-0.3,0.9-0.5,1.3-0.4c0.1,0,0.2,0,0.3,0.1c0.1,0,0.2,0.1,0.3,0.1
	c0.1,0.1,0.2,0.1,0.2,0.2c0.3,0.3,0.4,0.6,0.4,1C23.8,27.3,23.8,27.4,23.8,27.5z"/>
</svg>
