<?xml version="1.0" encoding="utf-8"?>
<!-- Generator: Adobe Illustrator 25.0.1, SVG Export Plug-In . SVG Version: 6.00 Build 0)  -->
<svg version="1.1" id="圖層_1" xmlns="http://www.w3.org/2000/svg" xmlns:xlink="http://www.w3.org/1999/xlink" x="0px" y="0px"
	 viewBox="0 0 44.3 41.8" style="enable-background:new 0 0 44.3 41.8;" xml:space="preserve">
<style type="text/css">
	.st0{fill:#FFFFFF;}
</style>
<path class="st0" d="M30.3,34.5c-1.6,0-3.2,0-4.9,0c-0.5-0.2-0.6-0.5-0.6-1c0-2,0-4.1,0-6.1c0-0.9-0.5-1.4-1.5-1.4
	c-0.8,0-1.6,0-2.3,0c-0.9,0-1.5,0.6-1.5,1.4c0,2,0,4,0,6.1c0,0.5-0.2,0.8-0.6,1c-1.6,0-3.2,0-4.9,0c-0.2-0.1-0.4-0.1-0.6-0.2
	c-1.2-0.4-2-1.5-2-2.8c0-2.6,0-5.2,0-7.8c0-0.1,0-0.2,0-0.3c-0.1,0-0.2,0-0.3,0c-0.3,0-0.7-0.1-1-0.2c-1.8-0.7-2.2-2.8-0.8-4.2
	c3.7-3.7,7.3-7.3,11-11C21.4,7,22.9,7,24,8.1c3.7,3.7,7.4,7.4,11,11c0.4,0.4,0.6,0.8,0.7,1.3c0,0.1,0,0.2,0.1,0.2c0,0.2,0,0.3,0,0.5
	c0,0.1,0,0.1,0,0.2c-0.2,1.1-1.1,2-2.3,2.1c-0.2,0-0.4,0-0.6,0c0,0.1,0,0.2,0,0.2c0,2.6,0,5.2,0,7.8c0,1.3-0.6,2.2-1.8,2.8
	C30.8,34.4,30.6,34.4,30.3,34.5z"/>
</svg>
