<?xml version="1.0" encoding="utf-8"?>
<!-- Generator: Adobe Illustrator 25.0.1, SVG Export Plug-In . SVG Version: 6.00 Build 0)  -->
<svg version="1.1" id="圖層_1" xmlns="http://www.w3.org/2000/svg" xmlns:xlink="http://www.w3.org/1999/xlink" x="0px" y="0px"
	 viewBox="0 0 44.3 41.8" style="enable-background:new 0 0 44.3 41.8;" xml:space="preserve">
<style type="text/css">
	.st0{fill:#FFFFFF;}
</style>
<g>
	<path class="st0" d="M32.2,35.3c0.1,0,0.2,0,0.3,0c-0.4-0.6-0.4-1.4,0-1.9c-0.1,0-0.2,0-0.3,0c-6.4,0-12.8,0-19.2,0
		c-0.1,0-0.2,0-0.3,0c-0.7,0.1-1.1,0.7-0.9,1.3c0.2,0.4,0.5,0.6,1.1,0.6C19.4,35.3,25.8,35.3,32.2,35.3z"/>
	<path class="st0" d="M19.1,31.5c0.7,0,1.4,0,2.1,0c0.5,0,1-0.2,1.4-0.6c0.6-0.6,0.7-1.6,0.3-2.3c-0.3-0.6-0.9-0.9-1.6-0.9
		c-0.9,0-1.7,0-2.6,0c-0.9,0-1.2-0.3-1.2-1.2c0-5.8,0-11.5,0-17.3c0-0.1,0-0.3,0-0.4c-0.1,0-0.2,0-0.3,0c-1.4,0-2.8,0-4.2,0
		c-0.8,0-1.2,0.3-1.2,1.2c0,7.1,0,14.2,0,21.3c0,0.1,0,0.2,0,0.3c1.3,0,2.5,0,3.8,0C16.7,31.5,17.9,31.5,19.1,31.5z"/>
	<path class="st0" d="M19.4,7.3v17.9c0,0.3,0.3,0.6,0.6,0.6c1.1,0,2.2-0.1,3.2,0.5c0-0.2,0-0.2,0-0.3c0-5.7,0-11.5,0-17.2
		c0-0.1,0-0.1,0-0.2c0-0.8-0.6-1.6-1.3-1.7c-0.6-0.1-1.2-0.1-1.8-0.1C19.6,6.7,19.4,7,19.4,7.3z"/>
	<path class="st0" d="M28.8,12.6c-1.3,0-2.5,0-3.8,0c0,0.6,0,1.2,0,1.9c1.3,0,2.5,0,3.8,0C28.8,13.8,28.8,13.2,28.8,12.6z"/>
	<path class="st0" d="M32.6,30.5V9.7c0-0.5-0.4-0.9-0.9-0.9H26c-0.5,0-0.9,0.4-0.9,0.9v0c0,0.5,0.4,0.9,0.9,0.9c0.9,0,1.8,0,2.7,0
		c1.1,0,2,0.9,2,2c0,0.5,0,1.1,0,1.6c0,1.1-0.9,2-2,2c-1.1,0-2.2,0-3.3,0c-0.1,0-0.2,0-0.3,0c0,0.6,0,1.3,0,1.9c0.1,0,0.2,0,0.4,0
		c1.4,0,2.8,0,4.3,0c0.4,0,0.8,0.2,0.9,0.6c0.3,0.6-0.2,1.3-0.9,1.3c-1.5,0-2.9,0-4.4,0c-0.1,0-0.2,0-0.3,0c0,0.7,0,1.3,0,1.9
		c0.1,0,0.2,0,0.4,0c1.4,0,2.8,0,4.3,0c0.2,0,0.5,0.1,0.7,0.2c0.3,0.2,0.4,0.7,0.3,1c-0.1,0.4-0.5,0.6-0.9,0.6c-1.5,0-2.9,0-4.4,0
		c-0.1,0-0.2,0-0.3,0c0,0.7,0,1.3,0,1.9c0.1,0,0.3,0,0.4,0c1.4,0,2.8,0,4.2,0c0.2,0,0.5,0.1,0.7,0.2c0.3,0.2,0.5,0.6,0.3,1
		c-0.1,0.4-0.5,0.7-0.9,0.7c-1.4,0-2.9,0-4.3,0c-0.1,0-0.2,0-0.4,0c0,0.7,0,1.3,0,1.9c0,0.2,0,0.5-0.1,0.7c-0.1,0.6,0.3,1.1,0.9,1.1
		h5.8C32.2,31.5,32.6,31,32.6,30.5z"/>
</g>
</svg>
