<?xml version="1.0" encoding="utf-8"?>
<!-- Generator: Adobe Illustrator 25.0.1, SVG Export Plug-In . SVG Version: 6.00 Build 0)  -->
<svg version="1.1" id="圖層_1" xmlns="http://www.w3.org/2000/svg" xmlns:xlink="http://www.w3.org/1999/xlink" x="0px" y="0px"
	 viewBox="0 0 44.3 41.8" style="enable-background:new 0 0 44.3 41.8;" xml:space="preserve">
<style type="text/css">
	.st0{fill:#FFFFFF;}
</style>
<g>
	<g>
		<path class="st0" d="M21.7,32.6H10.8c0.1,0.5,0.3,1.1,0.7,1.5c0.4,0.4,0.9,0.6,1.6,0.6h6.3c0,0,0.1,0,0.1,0c0,0,0.1,0,0.1,0h2.7
			c0,0-0.1-0.1-0.1-0.1C21.9,34,21.7,33.3,21.7,32.6z"/>
		<path class="st0" d="M13.4,10.7h12.3c0.1,0,0.3-0.1,0.3-0.3V7.2c0-0.1-0.1-0.3-0.3-0.3H13.4c-0.1,0-0.3,0.1-0.3,0.3v3.2
			C13.1,10.6,13.2,10.7,13.4,10.7z"/>
		<path class="st0" d="M24.8,30c-0.7,0.4-1.1,1.1-1.2,1.9c-0.1,0.6,0,1.2,0.3,1.8c0.8,1.2,2.4,1.6,3.6,0.9l3.2-1.9L28,28L24.8,30z"
			/>
		<path class="st0" d="M32.9,25.1L29.6,27l2.7,4.5l3.2-1.9c0.6-0.4,1-0.9,1.2-1.6c0.2-0.7,0.1-1.4-0.3-2
			C35.7,24.7,34.1,24.3,32.9,25.1z"/>
		<path class="st0" d="M28.1,21.3H10.9c-0.2,2-0.2,4.9-0.2,9.1v0.4c0,0,0,0,0,0h11.1c0.3-1,1-1.8,1.9-2.4l4.5-2.7
			C28.3,23.8,28.2,22.4,28.1,21.3z M21.4,26.6h-1.2v1.2c0,0.4-0.3,0.7-0.7,0.7c-0.4,0-0.7-0.3-0.7-0.7v-1.2h-1.2
			c-0.4,0-0.7-0.3-0.7-0.7s0.3-0.7,0.7-0.7h1.2V24c0-0.4,0.3-0.7,0.7-0.7c0.4,0,0.7,0.3,0.7,0.7v1.2h1.2c0.4,0,0.7,0.3,0.7,0.7
			S21.8,26.6,21.4,26.6z"/>
	</g>
	<path class="st0" d="M26.5,16.9c-0.7-0.6-1.2-1.2-1.5-1.9h0c-0.1-0.3-0.5-1.5-0.5-1.5l0,0c0,0,0,0,0,0h0c0-0.3-0.1-0.6-0.1-0.8
		h-4.9c0,0,0,0-0.1,0c0,0,0,0-0.1,0h-4.9c0,1.1-0.3,2.8-2,4.2c-0.7,0.6-1.1,1.3-1.4,2.5h16.7C27.6,18.2,27.1,17.5,26.5,16.9z
		 M19.5,15.1C19.4,15.1,19.4,15.1,19.5,15.1L19.5,15.1L19.5,15.1z"/>
</g>
</svg>
