<svg xmlns="http://www.w3.org/2000/svg" xmlns:xlink="http://www.w3.org/1999/xlink" width="72" height="72" viewBox="0 0 72 72">
  <defs>
    <clipPath id="clip-setting_icon_white">
      <rect width="72" height="72"/>
    </clipPath>
  </defs>
  <g id="setting_icon_white" clip-path="url(#clip-setting_icon_white)">
    <g id="settings" transform="translate(18 18)">
      <path id="Path_46" data-name="Path 46" d="M19.634,36.949H17.315a3.405,3.405,0,0,1-3.4-3.4v-.785A14.917,14.917,0,0,1,11.6,31.8l-.556.556a3.4,3.4,0,0,1-4.811,0L4.591,30.719a3.4,3.4,0,0,1,0-4.811l.556-.556a14.918,14.918,0,0,1-.961-2.316H3.4a3.405,3.405,0,0,1-3.4-3.4V17.315a3.405,3.405,0,0,1,3.4-3.4h.784A14.921,14.921,0,0,1,5.147,11.6l-.556-.556a3.4,3.4,0,0,1,0-4.811L6.231,4.591a3.4,3.4,0,0,1,4.811,0l.555.555a14.931,14.931,0,0,1,2.316-.961V3.4a3.405,3.405,0,0,1,3.4-3.4h2.319a3.405,3.405,0,0,1,3.4,3.4v.785a14.917,14.917,0,0,1,2.316.961l.556-.556a3.4,3.4,0,0,1,4.811,0l1.639,1.639a3.4,3.4,0,0,1,0,4.811L31.8,11.6a14.918,14.918,0,0,1,.961,2.316h.784a3.405,3.405,0,0,1,3.4,3.4v2.319a3.405,3.405,0,0,1-3.4,3.4h-.784a14.921,14.921,0,0,1-.961,2.316l.556.556a3.4,3.4,0,0,1,0,4.811l-1.639,1.639a3.4,3.4,0,0,1-4.811,0l-.555-.555a14.93,14.93,0,0,1-2.316.961v.785A3.405,3.405,0,0,1,19.634,36.949Zm-7.675-7.421A12.76,12.76,0,0,0,15.267,30.9a1.082,1.082,0,0,1,.812,1.048v1.6a1.238,1.238,0,0,0,1.237,1.236h2.319a1.238,1.238,0,0,0,1.237-1.236v-1.6a1.082,1.082,0,0,1,.812-1.048,12.76,12.76,0,0,0,3.307-1.373,1.082,1.082,0,0,1,1.317.166l1.132,1.132a1.236,1.236,0,0,0,1.748,0l1.64-1.64a1.236,1.236,0,0,0,0-1.748L29.7,26.307a1.083,1.083,0,0,1-.166-1.316A12.758,12.758,0,0,0,30.9,21.683a1.082,1.082,0,0,1,1.048-.812h1.6a1.238,1.238,0,0,0,1.237-1.236V17.315a1.238,1.238,0,0,0-1.237-1.236h-1.6a1.083,1.083,0,0,1-1.048-.812,12.76,12.76,0,0,0-1.373-3.307,1.083,1.083,0,0,1,.166-1.316l1.132-1.132a1.236,1.236,0,0,0,0-1.748l-1.64-1.64a1.236,1.236,0,0,0-1.748,0L26.307,7.255a1.082,1.082,0,0,1-1.317.166,12.76,12.76,0,0,0-3.307-1.373A1.082,1.082,0,0,1,20.871,5V3.4a1.238,1.238,0,0,0-1.237-1.236H17.315A1.238,1.238,0,0,0,16.079,3.4V5a1.082,1.082,0,0,1-.812,1.048,12.76,12.76,0,0,0-3.307,1.373,1.083,1.083,0,0,1-1.317-.166L9.511,6.122a1.236,1.236,0,0,0-1.748,0l-1.64,1.64a1.236,1.236,0,0,0,0,1.748l1.133,1.133a1.083,1.083,0,0,1,.166,1.316,12.758,12.758,0,0,0-1.373,3.307A1.082,1.082,0,0,1,5,16.079H3.4a1.238,1.238,0,0,0-1.237,1.237v2.319A1.238,1.238,0,0,0,3.4,20.871H5a1.083,1.083,0,0,1,1.048.812A12.76,12.76,0,0,0,7.421,24.99a1.083,1.083,0,0,1-.166,1.316L6.122,27.439a1.236,1.236,0,0,0,0,1.748l1.64,1.64a1.236,1.236,0,0,0,1.748,0l1.133-1.133A1.088,1.088,0,0,1,11.959,29.529Z" transform="translate(0 0)" fill="#fff"/>
      <path id="Path_47" data-name="Path 47" d="M152.639,160.679a8.039,8.039,0,1,1,8.039-8.039A8.048,8.048,0,0,1,152.639,160.679Zm0-13.914a5.874,5.874,0,1,0,5.874,5.874A5.881,5.881,0,0,0,152.639,146.765Z" transform="translate(-134.165 -134.165)" fill="#fff"/>
    </g>
  </g>
</svg>
