<svg xmlns="http://www.w3.org/2000/svg" xmlns:xlink="http://www.w3.org/1999/xlink" width="144" height="144" viewBox="0 0 144 144">
  <defs>
    <clipPath id="clip-iPhone_XR_XS_Max_11_78">
      <rect width="144" height="144"/>
    </clipPath>
  </defs>
  <g id="iPhone_XR_XS_Max_11_78" data-name="iPhone XR, XS Max, 11 – 78" clip-path="url(#clip-iPhone_XR_XS_Max_11_78)">
    <g id="smile" transform="translate(15 15)">
      <g id="Group_63" data-name="Group 63">
        <g id="Group_62" data-name="Group 62">
          <path id="Path_56" data-name="Path 56" d="M96.642,16.581A56.612,56.612,0,0,0,16.581,96.642,56.612,56.612,0,0,0,96.642,16.581Zm-40.03,87.8a47.766,47.766,0,1,1,47.766-47.766A47.82,47.82,0,0,1,56.611,104.377Z" fill="#b5f5c8"/>
        </g>
      </g>
      <g id="Group_65" data-name="Group 65" transform="translate(23.277 63.026)">
        <g id="Group_64" data-name="Group 64">
          <path id="Path_57" data-name="Path 57" d="M163.583,285.176a31.645,31.645,0,0,1-5.533,9.375,23.931,23.931,0,0,1-18.923,8.808,25.463,25.463,0,0,1-19.534-8.913,34.053,34.053,0,0,1-6.044-9.441l-8.287,3.094a42.367,42.367,0,0,0,7.522,12,34.447,34.447,0,0,0,26.343,12.1,32.861,32.861,0,0,0,25.9-12.2,40.035,40.035,0,0,0,6.973-12.092Z" transform="translate(-105.262 -285.006)" fill="#b5f5c8"/>
        </g>
      </g>
      <g id="Group_67" data-name="Group 67" transform="translate(30.075 32.755)">
        <g id="Group_66" data-name="Group 66">
          <circle id="Ellipse_15" data-name="Ellipse 15" cx="7.076" cy="7.076" r="7.076" fill="#b5f5c8"/>
        </g>
      </g>
      <g id="Group_69" data-name="Group 69" transform="translate(68.995 32.755)">
        <g id="Group_68" data-name="Group 68">
          <circle id="Ellipse_16" data-name="Ellipse 16" cx="7.076" cy="7.076" r="7.076" fill="#b5f5c8"/>
        </g>
      </g>
    </g>
  </g>
</svg>
