<?xml version="1.0" encoding="utf-8"?>
<!-- Generator: Adobe Illustrator 25.0.1, SVG Export Plug-In . SVG Version: 6.00 Build 0)  -->
<svg version="1.1" id="圖層_1" xmlns="http://www.w3.org/2000/svg" xmlns:xlink="http://www.w3.org/1999/xlink" x="0px" y="0px"
	 viewBox="0 0 44.3 41.8" style="enable-background:new 0 0 44.3 41.8;" xml:space="preserve">
<style type="text/css">
	.st0{fill:#008778;}
</style>
<g>
	<g>
		<path class="st0" d="M21.9,32.6H11.1c0.1,0.5,0.3,1.1,0.7,1.5c0.4,0.4,0.9,0.6,1.6,0.6h6.3c0,0,0.1,0,0.1,0c0,0,0.1,0,0.1,0h2.7
			c0,0-0.1-0.1-0.1-0.1C22.2,34,22,33.3,21.9,32.6z"/>
		<path class="st0" d="M13.7,10.7H26c0.1,0,0.3-0.1,0.3-0.3V7.2C26.2,7.1,26.1,7,26,7H13.7c-0.1,0-0.3,0.1-0.3,0.3v3.2
			C13.4,10.6,13.5,10.7,13.7,10.7z"/>
		<path class="st0" d="M25.1,30c-0.7,0.4-1.1,1.1-1.2,1.9c-0.1,0.6,0,1.2,0.3,1.8c0.8,1.2,2.4,1.6,3.6,0.9l3.2-1.9L28.3,28L25.1,30z
			"/>
		<path class="st0" d="M33.2,25.1L29.9,27l2.7,4.5l3.2-1.9c0.6-0.4,1-0.9,1.2-1.6s0.1-1.4-0.3-2C36,24.7,34.4,24.3,33.2,25.1z"/>
		<path class="st0" d="M28.4,21.3H11.2c-0.2,2-0.2,4.9-0.2,9.1v0.4c0,0,0,0,0,0h11.1c0.3-1,1-1.8,1.9-2.4l4.5-2.7
			C28.6,23.8,28.5,22.4,28.4,21.3z M21.7,26.6h-1.2v1.2c0,0.4-0.3,0.7-0.7,0.7c-0.4,0-0.7-0.3-0.7-0.7v-1.2h-1.2
			c-0.4,0-0.7-0.3-0.7-0.7s0.3-0.7,0.7-0.7h1.2V24c0-0.4,0.3-0.7,0.7-0.7c0.4,0,0.7,0.3,0.7,0.7v1.2h1.2c0.4,0,0.7,0.3,0.7,0.7
			S22,26.6,21.7,26.6z"/>
	</g>
	<path class="st0" d="M26.7,16.9c-0.7-0.6-1.2-1.2-1.5-1.9h0c-0.1-0.3-0.5-1.5-0.5-1.5l0,0c0,0,0,0,0,0h0c0-0.3-0.1-0.6-0.1-0.8
		h-4.9c0,0,0,0-0.1,0c0,0,0,0-0.1,0h-4.9c0,1.1-0.3,2.8-2,4.2c-0.7,0.6-1.1,1.3-1.4,2.5h16.7C27.9,18.2,27.4,17.5,26.7,16.9z
		 M19.7,15.1C19.7,15.1,19.7,15.1,19.7,15.1L19.7,15.1L19.7,15.1z"/>
</g>
</svg>
