<?xml version="1.0" encoding="utf-8"?>
<!-- Generator: Adobe Illustrator 25.0.1, SVG Export Plug-In . SVG Version: 6.00 Build 0)  -->
<svg version="1.1" id="圖層_1" xmlns="http://www.w3.org/2000/svg" xmlns:xlink="http://www.w3.org/1999/xlink" x="0px" y="0px"
	 viewBox="0 0 44.3 41.8" style="enable-background:new 0 0 44.3 41.8;" xml:space="preserve">
<style type="text/css">
	.st0{fill:#008778;}
</style>
<g>
	<path class="st0" d="M23.3,7.5c1.8,0.5,3.4,1.3,4.6,2.8c2,2.6,2,6,0,8.7c-1.8,2.5-5.2,3.5-8.2,2.4c-2.8-1-4.8-4-4.7-7
		c0.2-3.3,2.3-5.9,5.5-6.7c0.2,0,0.4-0.1,0.6-0.2C21.8,7.5,22.5,7.5,23.3,7.5z"/>
	<path class="st0" d="M25.3,23.2c-0.8-0.1-1.6-0.2-2.4-0.2l0.7,6.5l-1.4,1.4l-1.4-1.4l0.7-6.5c-0.4,0-0.8,0-1.3,0
		c-5.2,0.1-9.8,4.6-9.9,9.9c0,0.4,0.3,0.9,0.5,1.3c7.6,0,15.2,0,22.8,0c0.2-0.4,0.5-0.8,0.5-1.3C33.9,28.2,30.2,23.9,25.3,23.2z"/>
</g>
</svg>
