<?xml version="1.0" encoding="utf-8"?>
<!-- Generator: Adobe Illustrator 25.0.1, SVG Export Plug-In . SVG Version: 6.00 Build 0)  -->
<svg version="1.1" id="圖層_1" xmlns="http://www.w3.org/2000/svg" xmlns:xlink="http://www.w3.org/1999/xlink" x="0px" y="0px"
	 viewBox="0 0 44.3 41.8" style="enable-background:new 0 0 44.3 41.8;" xml:space="preserve">
<style type="text/css">
	.st0{fill:#008778;}
</style>
<g>
	<circle class="st0" cx="24.2" cy="20" r="1.5"/>
	<path class="st0" d="M25.2,27.9c-2.3,1.3-3.5,1.2-5.4-0.5c-1-0.9-2-1.9-3.2-2.7c-0.5-0.3-1.5-0.5-2-0.2c-1.7,1.1-3.4,2.2-4.8,3.6
		c-0.6,0.6-0.7,2.1-0.5,3.1c0.1,0.4,1.3,0.9,2.1,0.9c1.7,0.1,3.3,0,5,0c4.1,0,8.3,0,12.4,0c1.1,0,2.2,0,2.3-1.5c0.1-1.9,0-3.8,0-6.2
		C28.8,25.8,27,26.8,25.2,27.9z"/>
	<path class="st0" d="M29.5,15c-6.3,0-12.6,0-18.8,0.1c-0.5,0-1.5,0.8-1.5,1.3c-0.1,3.1-0.1,6.2-0.1,9.4c0.5-0.1,0.6-0.1,0.7-0.2
		c1.1-0.8,2.2-1.5,3.2-2.3c2-1.4,3.2-1.3,5,0.2c1.1,0.9,2.1,1.8,3.1,2.7c0.9,0.8,1.7,1,2.8,0.3c2-1.2,4.1-2.3,6.1-3.6
		c0.5-0.3,1-1.1,1.1-1.8c0.2-1.4,0.1-2.9,0-4.3C31.1,15.7,30.7,15,29.5,15z M24.2,23.2c-1.8,0-3.2-1.5-3.2-3.2
		c0-1.8,1.5-3.2,3.2-3.2c1.8,0,3.2,1.5,3.2,3.2C27.4,21.8,26,23.2,24.2,23.2z"/>
	<path class="st0" d="M33.3,11.6c-6-0.7-12-1.3-18-2c-1.6-0.2-2,0.6-2.2,2c-0.1,1.5,0.7,1.6,1.8,1.6c4.4,0,8.8,0,13.1,0
		c4.1,0,4.9,0.8,4.9,4.8c0,3.3,0,6.6,0,10c0.1,0,0.3,0,0.4,0c0.1-0.2,0.2-0.4,0.2-0.6c0.5-4.6,1.1-9.3,1.6-13.9
		C35.3,12.1,34.4,11.8,33.3,11.6z"/>
</g>
</svg>
