<?xml version="1.0" encoding="utf-8"?>
<!-- Generator: Adobe Illustrator 25.0.1, SVG Export Plug-In . SVG Version: 6.00 Build 0)  -->
<svg version="1.1" id="圖層_1" xmlns="http://www.w3.org/2000/svg" xmlns:xlink="http://www.w3.org/1999/xlink" x="0px" y="0px"
	 viewBox="0 0 44.3 41.8" style="enable-background:new 0 0 44.3 41.8;" xml:space="preserve">
<style type="text/css">
	.st0{fill:#FFFFFF;}
</style>
<g>
	<path class="st0" d="M22.4,6.7c0.3,0.1,0.6,0.3,0.7,0.6c0.1,0.2,0.1,0.5,0.2,0.7c0,0.3,0,0.7,0,1c0,0.1,0,0.2,0.2,0.2
		c3.2,0.7,5.3,2.7,6.3,5.9c0.2,0.8,0.3,1.5,0.3,2.3c0,1,0,2.1,0,3.1c0,2.2,0.8,4.2,2.3,5.8c0.1,0.1,0.3,0.3,0.4,0.4
		c0.6,0.6,0.8,1.4,0.5,2.2c-0.3,0.8-0.9,1.3-1.8,1.4c-0.1,0-0.1,0-0.2,0c-6.1,0-12.2,0-18.3,0c-0.9,0-1.6-0.5-2-1.3
		c-0.3-0.8-0.1-1.7,0.5-2.3c0.6-0.6,1.1-1.2,1.6-1.9c0.8-1.3,1.2-2.8,1.2-4.4c0-1.2-0.1-2.4,0-3.7c0.2-2.8,1.4-4.9,3.5-6.5
		c0.9-0.7,1.9-1.1,3-1.2C21,9.2,21,9.1,21,9c0-0.3,0-0.7,0-1c0-0.6,0.3-1,0.8-1.2c0,0,0,0,0.1,0C22.1,6.7,22.3,6.7,22.4,6.7z"/>
	<path class="st0" d="M21.7,35.1c-0.3-0.1-0.6-0.1-0.9-0.3c-1.4-0.5-2.3-1.6-2.7-3.1c0-0.1,0-0.1,0-0.2c2.8,0,5.5,0,8.3,0
		c-0.1,0.3-0.2,0.6-0.3,0.8c-0.6,1.5-1.8,2.4-3.3,2.7c0,0-0.1,0-0.1,0C22.3,35.1,22,35.1,21.7,35.1z"/>
</g>
</svg>
