<svg xmlns="http://www.w3.org/2000/svg" xmlns:xlink="http://www.w3.org/1999/xlink" width="21" height="24" viewBox="0 0 21 24">
  <defs>
    <clipPath id="clip-sequence_icon_">
      <rect width="21" height="24"/>
    </clipPath>
  </defs>
  <g id="sequence_icon_" data-name="sequence_icon " clip-path="url(#clip-sequence_icon_)">
    <g id="sort" transform="translate(-12 -7)">
      <path id="Path_84" data-name="Path 84" d="M22.022,11.495,18.8,8.27a.921.921,0,0,0-1.3,0L14.27,11.495a.921.921,0,0,0,1.3,1.3l1.652-1.652V29.19a.921.921,0,0,0,1.843,0V11.145L20.719,12.8a.921.921,0,1,0,1.3-1.3Z" transform="translate(0 0)" fill="#707070"/>
      <path id="Path_85" data-name="Path 85" d="M40.022,25.314a.921.921,0,0,0-1.3,0l-1.652,1.652V8.921a.921.921,0,1,0-1.843,0V26.966l-1.652-1.652a.921.921,0,0,0-1.3,1.3l3.225,3.225a.921.921,0,0,0,1.3,0l3.225-3.225a.921.921,0,0,0,0-1.3Z" transform="translate(-9.708)" fill="#707070"/>
    </g>
  </g>
</svg>
