<svg xmlns="http://www.w3.org/2000/svg" xmlns:xlink="http://www.w3.org/1999/xlink" width="72" height="72" viewBox="0 0 72 72">
  <defs>
    <clipPath id="clip-teacher_icon_white">
      <rect width="72" height="72"/>
    </clipPath>
  </defs>
  <g id="teacher_icon_white" clip-path="url(#clip-teacher_icon_white)">
    <g id="teacher" transform="translate(18.722 18.998)">
      <g id="Group_29" data-name="Group 29" transform="translate(5.21)">
        <g id="Group_28" data-name="Group 28">
          <path id="Path_28" data-name="Path 28" d="M79.168,0A4.224,4.224,0,0,0,75,4.237a4.168,4.168,0,0,0,8.336,0A4.224,4.224,0,0,0,79.168,0Zm0,6.321a2.086,2.086,0,0,1-2.084-2.084,2.085,2.085,0,1,1,4.168,0A2.086,2.086,0,0,1,79.168,6.321Z" transform="translate(-75)" fill="#fff"/>
        </g>
      </g>
      <g id="Group_31" data-name="Group 31">
        <g id="Group_30" data-name="Group 30">
          <path id="Path_29" data-name="Path 29" d="M32.44,0H17.713a3.129,3.129,0,0,0-3.126,3.126v7.111l-.916-.916a3.105,3.105,0,0,0-2.21-.916H5.21A5.216,5.216,0,0,0,0,13.615v6.252a3.126,3.126,0,0,0,4.168,2.947V32.44a3.124,3.124,0,0,0,5.21,2.328,3.124,3.124,0,0,0,5.21-2.328V18.647a3.138,3.138,0,0,0,2.44-.152l3.508-1.754h11.9a3.129,3.129,0,0,0,3.126-3.126V3.126A3.129,3.129,0,0,0,32.44,0ZM20.263,14.547,16.1,16.63a1.042,1.042,0,0,1-1.2-.195l-.61-.61a1.043,1.043,0,0,0-1.779.734s0,0,0,0V32.44a1.042,1.042,0,1,1-2.084,0V21.951a1.042,1.042,0,0,0-2.084,0V32.44a1.042,1.042,0,1,1-2.084,0V13.615a1.042,1.042,0,0,0-2.084,0v6.252a1.042,1.042,0,1,1-2.084,0c0-.786,0-5.61,0-6.252A3.129,3.129,0,0,1,5.21,10.489h6.252a1.035,1.035,0,0,1,.737.305L15.3,13.9a1.042,1.042,0,0,0,1.2.2l2.825-1.413a1.042,1.042,0,0,1,.932,1.864Zm13.218-.932a1.043,1.043,0,0,1-1.042,1.042h-9.7c.006-.018.013-.035.019-.053a3.114,3.114,0,0,0,.138-1.375l5.7-2.849a1.042,1.042,0,1,0-.932-1.864l-5.7,2.849a3.123,3.123,0,0,0-3.57-.545l-1.728.864V3.126a1.043,1.043,0,0,1,1.042-1.042H32.44a1.043,1.043,0,0,1,1.042,1.042Z" fill="#fff"/>
        </g>
      </g>
    </g>
  </g>
</svg>
